HIERARCHY
ROOT joint_Root
{
	OFFSET 0.0 0.0 0.0
	CHANNELS 6 Xposition Yposition Zposition Zrotation Xrotation Yrotation 
	JOINT Hips
	{
		OFFSET -0.726466 93.3139 -2.00062
		CHANNELS 6 Xposition Yposition Zposition Zrotation Xrotation Yrotation 
		JOINT Spine
		{
			OFFSET 15.7357 0.0 0.0
			CHANNELS 6 Xposition Yposition Zposition Zrotation Xrotation Yrotation 
			JOINT Chest
			{
				OFFSET 8.98455 -0.406207 0.0
				CHANNELS 6 Xposition Yposition Zposition Zrotation Xrotation Yrotation 
				JOINT Neck
				{
					OFFSET 16.3773 0.0 0.0
					CHANNELS 6 Xposition Yposition Zposition Zrotation Xrotation Yrotation 
					JOINT Head
					{
						OFFSET 6.45672 0.0 0.0
						CHANNELS 6 Xposition Yposition Zposition Zrotation Xrotation Yrotation 
						End Site
						{
							OFFSET 0.0 0.0 0.0
						}
					}
				}
				JOINT Shoulder_L
				{
					OFFSET 12.9942 -0.242716 4.98039
					CHANNELS 6 Xposition Yposition Zposition Zrotation Xrotation Yrotation 
					JOINT UpperArm_L
					{
						OFFSET 5.34809 0.0 0.0
						CHANNELS 6 Xposition Yposition Zposition Zrotation Xrotation Yrotation 
						JOINT LowerArm_L
						{
							OFFSET 24.3286 1.87007e-05 0.0
							CHANNELS 6 Xposition Yposition Zposition Zrotation Xrotation Yrotation 
							JOINT Hand_L
							{
								OFFSET 22.2916 0.0 0.0
								CHANNELS 6 Xposition Yposition Zposition Zrotation Xrotation Yrotation 
								End Site
								{
									OFFSET 0.0 0.0 0.0
								}
							}
						}
					}
				}
				JOINT Shoulder_R
				{
					OFFSET 12.9945 -0.242716 -4.98039
					CHANNELS 6 Xposition Yposition Zposition Zrotation Xrotation Yrotation 
					JOINT UpperArm_R
					{
						OFFSET -5.34813 0.0 0.0
						CHANNELS 6 Xposition Yposition Zposition Zrotation Xrotation Yrotation 
						JOINT LowerArm_R
						{
							OFFSET -24.3289 0.000322201 0.0
							CHANNELS 6 Xposition Yposition Zposition Zrotation Xrotation Yrotation 
							JOINT Hand_R
							{
								OFFSET -22.2915 -0.000108084 0.0
								CHANNELS 6 Xposition Yposition Zposition Zrotation Xrotation Yrotation 
								End Site
								{
									OFFSET 0.0 0.0 0.0
								}
							}
						}
					}
				}
			}
		}
		JOINT UpperLeg_L
		{
			OFFSET -2.19248 -6.46944 0.0
			CHANNELS 6 Xposition Yposition Zposition Zrotation Xrotation Yrotation 
			JOINT LowerLeg_L
			{
				OFFSET 39.0811 0.0 -1.23785e-05
				CHANNELS 6 Xposition Yposition Zposition Zrotation Xrotation Yrotation 
				JOINT Foot_L
				{
					OFFSET 40.9854 0.0 -1.26872e-05
					CHANNELS 6 Xposition Yposition Zposition Zrotation Xrotation Yrotation 
					JOINT Toes_L
					{
						OFFSET 11.7543 0.0 0.0
						CHANNELS 6 Xposition Yposition Zposition Zrotation Xrotation Yrotation 
						End Site
						{
							OFFSET 0.0 0.0 0.0
						}
					}
				}
			}
		}
		JOINT UpperLeg_R
		{
			OFFSET -2.19251 6.46944 0.0
			CHANNELS 6 Xposition Yposition Zposition Zrotation Xrotation Yrotation 
			JOINT LowerLeg_R
			{
				OFFSET -39.0811 -0.00228153 -0.0401928
				CHANNELS 6 Xposition Yposition Zposition Zrotation Xrotation Yrotation 
				JOINT Foot_R
				{
					OFFSET -40.9854 0.0 0.0
					CHANNELS 6 Xposition Yposition Zposition Zrotation Xrotation Yrotation 
					JOINT Toes_R
					{
						OFFSET -11.7543 0.0 0.0
						CHANNELS 6 Xposition Yposition Zposition Zrotation Xrotation Yrotation 
						End Site
						{
							OFFSET 0.0 0.0 0.0
						}
					}
				}
			}
		}
	}
}
MOTION
Frames:	7
Frame Time:	0.0333333
0.000000 0.000000 0.000000 0.000000 0.000000 -0.000000 -0.787656 92.014600 -1.161150 87.973500 -2.127090 5.399350 15.735700 0.000005 -0.000001 83.922900 84.208900 -83.527600 8.984550 -0.406207 -0.000000 3.756130 -1.238350 0.830350 16.377300 -0.000001 -0.000001 2.357790 -1.096150 1.010440 6.456720 -0.000001 -0.000000 2.344400 -0.174716 -0.717150 12.994200 -0.242716 4.980390 -90.111900 0.365422 -72.979600 5.348090 -0.000007 -0.000001 -65.703000 38.320500 -16.378200 24.328600 0.000019 0.000005 3.133470 6.580260 -25.534000 22.291600 -0.000001 0.000005 9.022340 5.633050 -13.567000 12.994500 -0.242716 -4.980390 88.262400 5.904430 -73.569400 -5.348130 -0.000001 -0.000004 -65.404300 38.212400 -15.548300 -24.328900 0.000322 -0.000009 -3.688900 -7.331210 -26.798700 -22.291500 -0.000108 -0.000004 10.187800 5.596360 -11.121200 -2.192480 -6.469440 -0.000000 -169.512000 -20.640100 -1.907480 39.081100 -0.000007 -0.000012 -0.146537 0.331550 23.844300 40.985400 -0.000006 -0.000013 -5.107190 0.209415 -64.171000 11.754300 -0.000000 0.000003 -0.000178 -0.001680 -16.641100 -2.192510 6.469440 -0.000001 173.848000 23.366400 179.949000 -39.081100 -0.002282 -0.040193 0.030167 -0.067186 21.782800 -40.985400 0.000008 0.000006 -0.224590 4.483520 -64.029900 -11.754300 -0.000006 -0.000006 -0.003431 -0.045382 -18.418900
0.000000 0.000000 0.000000 0.000000 0.000000 -0.000000 -0.790160 92.023600 -1.213110 87.955800 -2.132250 5.392100 15.735700 0.000005 -0.000001 83.690600 84.224800 -83.291100 8.984550 -0.406207 -0.000000 3.719710 -1.281780 0.839738 16.377300 -0.000001 -0.000001 2.226790 -1.051900 0.944890 6.456720 -0.000001 -0.000000 2.245900 -0.189849 -0.626917 12.994200 -0.242716 4.980390 -90.085900 0.274150 -72.611800 5.348090 -0.000007 -0.000001 -65.411900 35.309600 -15.843000 24.328600 0.000019 0.000005 3.232560 6.499380 -26.517100 22.291600 -0.000001 0.000005 9.624090 5.640250 -14.143300 12.994500 -0.242716 -4.980390 88.308300 5.652870 -73.309600 -5.348130 -0.000001 -0.000004 -64.977800 35.608800 -15.445400 -24.328900 0.000322 -0.000009 -3.075970 -5.966180 -27.332100 -22.291500 -0.000108 -0.000004 11.048600 5.601840 -11.453700 -2.192480 -6.469440 -0.000000 -169.511000 -20.613400 -1.931100 39.081100 -0.000007 -0.000012 -0.145295 0.329224 23.813200 40.985400 -0.000006 -0.000013 -5.111300 0.154969 -64.130200 11.754300 -0.000000 0.000003 -0.000181 -0.001701 -16.641900 -2.192510 6.469440 -0.000001 173.893000 23.349800 179.890000 -39.081100 -0.002282 -0.040193 0.030370 -0.067654 21.794200 -40.985400 0.000008 0.000006 -0.197037 4.465650 -63.954400 -11.754300 -0.000006 -0.000006 -0.003451 -0.045606 -18.428000
0.000000 0.000000 0.000000 0.000000 0.000000 -0.000000 -0.792366 92.031000 -1.290500 87.961800 -2.225240 5.321180 15.735700 0.000005 -0.000001 83.707600 84.293600 -83.323100 8.984550 -0.406207 -0.000000 3.583100 -1.263330 0.807694 16.377300 -0.000001 -0.000001 2.312330 -1.043140 0.940523 6.456720 -0.000001 -0.000000 2.151730 -0.207318 -0.598354 12.994200 -0.242716 4.980390 -90.062600 0.194831 -72.180100 5.348090 -0.000007 -0.000001 -63.766000 31.081400 -16.005600 24.328600 0.000019 0.000005 3.146880 6.165850 -27.106300 22.291600 -0.000001 0.000005 10.059600 5.640590 -14.175700 12.994500 -0.242716 -4.980390 88.326800 5.400180 -72.756200 -5.348130 -0.000001 -0.000004 -63.272700 31.974700 -16.301000 -24.328900 0.000322 -0.000009 -2.340490 -4.499530 -27.507800 -22.291500 -0.000108 -0.000004 11.448600 5.595190 -11.058900 -2.192480 -6.469440 -0.000000 -169.559000 -20.617300 -2.035630 39.081100 -0.000007 -0.000012 -0.146084 0.331439 23.785900 40.985400 -0.000006 -0.000013 -5.122810 0.044294 -64.075500 11.754300 -0.000000 0.000003 -0.000171 -0.001626 -16.639200 -2.192510 6.469440 -0.000001 173.951000 23.337500 179.723000 -39.081100 -0.002282 -0.040193 0.031309 -0.069927 21.815300 -40.985400 0.000008 0.000006 -0.154696 4.531430 -63.895900 -11.754300 -0.000006 -0.000006 -0.003712 -0.048406 -18.542000
0.000000 0.000000 0.000000 0.000000 0.000000 -0.000000 -0.812803 92.041700 -1.380220 87.973100 -2.232620 5.352660 15.735700 0.000005 -0.000001 83.332800 84.373000 -82.968000 8.984550 -0.406207 -0.000000 3.417030 -1.318930 0.768028 16.377300 -0.000001 -0.000001 2.565310 -1.038720 0.954461 6.456720 -0.000001 -0.000000 2.257830 -0.186525 -0.560475 12.994200 -0.242716 4.980390 -89.996400 -0.010941 -71.886300 5.348090 -0.000007 -0.000001 -60.417800 26.208500 -17.361400 24.328600 0.000019 0.000005 3.102610 6.275520 -26.376200 22.291600 -0.000001 0.000005 10.846300 5.638640 -14.013700 12.994500 -0.242716 -4.980390 88.398500 5.043350 -72.357100 -5.348130 -0.000001 -0.000004 -60.328200 27.045900 -18.177900 -24.328900 0.000322 -0.000009 -1.445810 -2.873940 -26.698600 -22.291500 -0.000108 -0.000004 12.225300 5.586430 -10.576300 -2.192480 -6.469440 -0.000000 -169.555000 -20.636100 -2.031800 39.081100 -0.000007 -0.000012 -0.146578 0.333527 23.724500 40.985400 -0.000006 -0.000013 -5.107500 0.097225 -63.983000 11.754300 -0.000000 0.000003 -0.000175 -0.001656 -16.640200 -2.192510 6.469440 -0.000001 173.960000 23.323500 179.721000 -39.081100 -0.002282 -0.040193 0.029625 -0.065922 21.755100 -40.985400 0.000008 0.000006 -0.205874 4.535270 -63.829300 -11.754300 -0.000006 -0.000006 -0.003317 -0.044140 -18.368300
0.000000 0.000000 0.000000 0.000000 0.000000 -0.000000 -0.822324 92.028600 -1.460040 87.973900 -2.279110 5.494030 15.735700 0.000005 -0.000001 83.106400 84.425800 -82.761900 8.984550 -0.406207 -0.000000 3.306770 -1.349990 0.727356 16.377300 -0.000001 -0.000001 2.824900 -1.041870 1.007350 6.456720 -0.000001 -0.000000 2.550080 -0.179912 -0.477254 12.994200 -0.242716 4.980390 -89.862200 -0.416674 -71.697600 5.348090 -0.000007 -0.000001 -56.631000 19.117800 -19.089700 24.328600 0.000019 0.000005 3.146250 6.650910 -25.388200 22.291600 -0.000001 0.000005 11.260300 5.637460 -13.917700 12.994500 -0.242716 -4.980390 88.512100 4.589420 -72.014900 -5.348130 -0.000001 -0.000004 -56.620600 20.307100 -20.844200 -24.328900 0.000322 -0.000009 -0.252133 -0.521202 -25.709500 -22.291500 -0.000108 -0.000004 13.550200 5.561560 -9.277460 -2.192480 -6.469440 -0.000000 -169.504000 -20.730900 -1.992370 39.081100 -0.000007 -0.000012 -0.143922 0.325568 23.848700 40.985400 -0.000006 -0.000013 -5.081850 0.136117 -63.984200 11.754300 -0.000000 0.000003 -0.000145 -0.001415 -16.631400 -2.192510 6.469440 -0.000001 173.934000 23.253400 179.817000 -39.081100 -0.002282 -0.040193 0.029968 -0.066728 21.771200 -40.985400 0.000008 0.000006 -0.201823 4.552670 -63.901100 -11.754300 -0.000006 -0.000006 -0.003364 -0.044657 -18.389400
0.000000 0.000000 0.000000 0.000000 0.000000 -0.000000 -0.835936 92.034200 -1.566090 87.941100 -2.305580 5.564290 15.735700 0.000005 -0.000001 82.849900 84.513700 -82.505900 8.984550 -0.406207 -0.000000 3.126350 -1.378240 0.724961 16.377300 -0.000001 -0.000001 3.050280 -1.022220 1.035600 6.456720 -0.000001 -0.000000 2.954730 -0.272122 -0.332213 12.994200 -0.242716 4.980390 -89.683100 -0.948033 -71.518300 5.348090 -0.000007 -0.000001 -53.169000 9.755490 -20.826900 24.328600 0.000019 0.000005 3.050580 6.490390 -25.242200 22.291600 -0.000001 0.000005 11.905300 5.634380 -13.669200 12.994500 -0.242716 -4.980390 88.622700 4.177800 -71.735100 -5.348130 -0.000001 -0.000004 -52.544000 11.946500 -23.780800 -24.328900 0.000322 -0.000009 0.249253 0.521887 -25.619300 -22.291500 -0.000108 -0.000004 15.080800 5.532190 -7.903500 -2.192480 -6.469440 -0.000000 -169.452000 -20.724300 -2.005360 39.081100 -0.000007 -0.000012 -0.146329 0.330744 23.866000 40.985400 -0.000006 -0.000013 -5.078770 0.104815 -63.915200 11.754300 -0.000000 0.000003 -0.000171 -0.001622 -16.639000 -2.192510 6.469440 -0.000001 173.991000 23.254900 179.809000 -39.081100 -0.002282 -0.040193 0.030960 -0.069216 21.769400 -40.985400 0.000008 0.000006 -0.061751 4.541370 -63.866800 -11.754300 -0.000006 -0.000006 -0.003301 -0.043963 -18.361100
0.000000 0.000000 0.000000 0.000000 0.000000 -0.000000 -0.837482 92.036800 -1.644700 87.927400 -2.358340 5.651470 15.735700 0.000005 -0.000001 82.849700 84.586500 -82.516700 8.984550 -0.406207 -0.000000 2.981590 -1.360230 0.700771 16.377300 -0.000001 -0.000001 3.273680 -1.030570 1.015020 6.456720 -0.000001 -0.000000 3.117610 -0.365170 -0.036829 12.994200 -0.242716 4.980390 -89.473000 -1.550150 -71.222800 5.348090 -0.000007 -0.000001 -49.782200 -0.456596 -23.003800 24.328600 0.000019 0.000005 3.052150 6.168330 -26.393500 22.291600 -0.000001 0.000005 12.955500 5.634160 -13.655400 12.994500 -0.242716 -4.980390 88.794800 3.585210 -71.406100 -5.348130 -0.000001 -0.000004 -48.543600 2.945220 -27.105000 -24.328900 0.000322 -0.000009 0.685310 1.384840 -26.364300 -22.291500 -0.000108 -0.000004 16.904300 5.513150 -7.077930 -2.192480 -6.469440 -0.000000 -169.441000 -20.651500 -1.978120 39.081100 -0.000007 -0.000012 -0.144585 0.326410 23.891400 40.985400 -0.000006 -0.000013 -5.082770 -0.017472 -63.891100 11.754300 -0.000000 0.000003 -0.000156 -0.001504 -16.634700 -2.192510 6.469440 -0.000001 173.988000 23.228000 179.860000 -39.081100 -0.002282 -0.040193 0.030485 -0.068144 21.735700 -40.985400 0.000008 0.000006 -0.090545 4.594390 -63.820500 -11.754300 -0.000006 -0.000006 -0.003440 -0.045481 -18.422900
